<svg viewBox="4390 3640 1080 1350" fill="#101828" xmlns="http://www.w3.org/2000/svg">
    <g transform="translate(0, 8500) scale(1, -1)">
        <path d="M5287 4850 l-228 -5 -116 -225 c-103 -199 -113 -222 -87 -205 16 10 74 46 129 80 260 160 550 351 538 356 -4 2 -111 2 -236 -1z"/>
        <path d="M4480 4845 c0 -2 26 -44 58 -92 32 -48 94 -143 138 -210 43 -68 81 -123 84 -123 4 0 202 383 218 422 2 4 -109 8 -247 8 -138 0 -251 -2 -251 -5z"/>
        <path d="M4410 4230 c0 -344 4 -560 9 -560 6 0 16 8 23 19 14 19 84 97 177 196 120 127 111 105 111 285 l0 159 -152 230 c-84 127 -156 230 -160 231 -5 0 -8 -252 -8 -560z"/>
        <path d="M4802 4168 l3 -143 155 -3 155 -2 145 145 145 145 -303 0 -303 0 3 -142z"/>
        <path d="M4567 3731 c-149 -161 -157 -172 -157 -210 0 -23 4 -41 8 -41 5 0 27 21 49 48 22 26 93 103 157 172 104 113 115 129 116 163 0 20 -3 37 -8 37 -4 0 -78 -76 -165 -169z"/>
    </g>
</svg>
